<svg width="48" height="48" viewBox="0 0 48 48" fill="none" xmlns="http://www.w3.org/2000/svg">
  <path d="M8 6C8 6 12 4 16 4C20 4 24 6 24 6V42C24 42 20 40 16 40C12 40 8 42 8 42V6Z" stroke="currentColor" stroke-width="2" stroke-linecap="round" stroke-linejoin="round"/>
  <path d="M24 6C24 6 28 4 32 4C36 4 40 6 40 6V42C40 42 36 40 32 40C28 40 24 42 24 42V6Z" stroke="currentColor" stroke-width="2" stroke-linecap="round" stroke-linejoin="round"/>
  <path d="M24 6V42" stroke="currentColor" stroke-width="2" stroke-linecap="round" stroke-linejoin="round"/>
</svg>