<?xml version="1.0" standalone="no"?><!DOCTYPE svg PUBLIC "-//W3C//DTD SVG 1.1//EN" "http://www.w3.org/Graphics/SVG/1.1/DTD/svg11.dtd"><svg t="1745854293878" class="icon" viewBox="0 0 1024 1024" version="1.1" xmlns="http://www.w3.org/2000/svg" p-id="3979" xmlns:xlink="http://www.w3.org/1999/xlink" width="200" height="200"><path d="M885.2 352.3c-20.4-48.2-49.6-91.5-86.8-128.7-37.2-37.2-80.5-66.4-128.7-86.8-50-21.1-103-31.8-157.7-31.8s-107.7 10.7-157.7 31.8c-48.2 20.4-91.5 49.6-128.7 86.8-37.2 37.2-66.4 80.5-86.8 128.7-21.1 50-31.8 103-31.8 157.7 0 78.9 22.7 155.5 65.7 221.3 7.9 12.1 24.1 15.5 36.2 7.6 12.1-7.9 15.5-24.1 7.6-36.2-37.4-57.3-57.2-123.9-57.2-192.6 0-194.4 158.2-352.6 352.6-352.6S864.6 315.6 864.6 510 706.4 862.6 512 862.6c-67.8 0-133.7-19.3-190.4-55.8-12.2-7.8-28.4-4.3-36.2 7.9-7.8 12.2-4.3 28.4 7.9 36.2C358.5 892.8 434.1 915 512 915c54.7 0 107.7-10.7 157.7-31.8 48.2-20.4 91.5-49.6 128.7-86.8 37.2-37.2 66.4-80.5 86.8-128.7 21.1-49.9 31.8-103 31.8-157.7s-10.7-107.7-31.8-157.7z" fill="#B3B3B3" p-id="3980"></path><path d="M453.1 665.1l222.7-128.6c1.3-0.8 2.6-1.6 3.7-2.6 2.9-2.2 5.5-5 7.4-8.3 7.6-13.2 3.1-30.2-10.1-37.9L452.5 358.3c-11.6-6.7-26.1-4-34.7 5.7-4.6 5-7.4 11.6-7.4 18.8v257.5c0 9.3 4.6 17.5 11.7 22.6 8.7 6.7 21 8 31 2.2zM465.9 430l141.7 81.8-141.7 81.8V430z" fill="#B3B3B3" p-id="3981"></path></svg>