<?xml version="1.0" standalone="no"?><!DOCTYPE svg PUBLIC "-//W3C//DTD SVG 1.1//EN" "http://www.w3.org/Graphics/SVG/1.1/DTD/svg11.dtd"><svg t="1742914154875" class="icon" viewBox="0 0 1024 1024" version="1.1" xmlns="http://www.w3.org/2000/svg" p-id="8253" xmlns:xlink="http://www.w3.org/1999/xlink" width="200" height="200"><path d="M641.709 630.536c7.663-17.504 11.895-36.843 11.895-57.16 0-79.013-64.045-143.057-143.059-143.057-27.322 0-52.828 7.653-74.542 20.935l-44.227-44.217c33.49-23.94 74.484-38.03 118.77-38.03 112.881 0 204.368 91.497 204.368 204.368 0 44.286-14.091 85.3-38.04 118.75l-0.08-0.08c-1.516 3.672-3.752 7.143-6.786 10.137-11.975 11.976-31.274 12.077-43.308 0.04l-43.408-43.388c-11.955-11.974-12.035-31.292 0.02-43.346 11.975-11.976 31.294-12.056 43.348-0.02l15.049 15.068zM327.553 482.299c-13.692 27.421-21.376 58.346-21.376 91.076 0 112.883 91.507 204.368 204.368 204.368 38.998 0 75.442-10.937 106.455-29.895l-45.184-45.166c-18.56 8.822-39.336 13.751-61.27 13.751-79.014 0-143.059-64.045-143.059-143.058 0-10.02 1.018-19.819 2.994-29.259l8.922 8.902c12.054 12.054 31.373 11.954 43.328 0 12.055-12.055 11.996-31.384 0.02-43.35l-43.387-43.386c-12.054-12.046-31.374-11.956-43.349 0.02-4.551 4.56-7.365 10.159-8.462 15.997z" p-id="8254" fill="#ffffff"></path><path d="M919.182 266.824h-203.65l-43.528-86.158c-10.178-20.178-36.763-36.463-59.394-36.463H408.482c-22.653 0-49.157 16.476-59.255 36.792l-42.61 85.829H101.909c-22.592 0-40.974 18.222-40.974 40.703v531.687c0 22.354 18.342 40.715 40.974 40.715h817.273c22.612 0 40.973-18.222 40.973-40.715V307.527c0-22.353-18.341-40.703-40.973-40.703zM898.845 798.18c0 11.277-9.26 20.438-20.377 20.438H142.623c-11.257 0-20.377-9.142-20.377-20.438v-449.6c0-11.285 9.26-20.446 20.377-20.446H347.05l30.435-61.31 21.314-42.95c5.03-10.138 18.222-18.36 29.578-18.36H593.03c11.317 0 24.529 8.042 29.597 18.092l21.834 43.218 30.976 61.31h203.03c11.256 0 20.377 9.142 20.377 20.446v449.6z" p-id="8255" fill="#ffffff"></path></svg>